<svg xmlns="http://www.w3.org/2000/svg" viewBox="0 0 24 24" style="fill:currentColor;stroke:currentColor;stroke-width:2;stroke-linecap:round;stroke-linejoin:round">
  <path d="M17 9h3c1.1 0 2 .9 2 2v9c0 1.1-.9 2-2 2h-9c-1.1 0-2-.9-2-2v-3" style="fill:none; stroke-linecap:square"/>
  <path d="M13 16h-3v-5c0-.6.4-1 1-1h5v3c0 1.7-1.3 3-3 3z" style="stroke:none;stroke-linejoin:miter"/>
  <path d="M4 2h9c1.1 0 2 .9 2 2v3h-4c-2.2 0-4 1.8-4 4v4H4c-1.1 0-2-.9-2-2V4c0-1.1.9-2 2-2z" style="stroke-linejoin:miter"/>
</svg>
