<svg xmlns="http://www.w3.org/2000/svg" xmlns:xlink="http://www.w3.org/1999/xlink" width="0" height="0" style="display:none;">
    <symbol id="icon-arrow-up" viewBox="0 0 24 24" class="feather feather-arrow-up"><line x1="12" y1="19" x2="12" y2="5"></line><polyline points="5 12 12 5 19 12"></polyline></symbol>
  <symbol id="icon-arrow-left" viewBox="0 0 24 24" class="feather feather-chevron-left"><polyline points="15 18 9 12 15 6"></polyline></symbol>
  <symbol id="icon-arrow-right" viewBox="0 0 24 24" class="feather feather-chevron-right"><polyline points="9 18 15 12 9 6"></polyline></symbol>
  <symbol id="icon-clock" viewBox="0 0 24 24" class="feather feather-clock"><circle cx="12" cy="12" r="10"></circle><polyline points="12 6 12 12 16 14"></polyline></symbol>
  <symbol id="icon-caret" viewBox="0 0 24 24" class="feather feather-custom"><polygon points="9,18 15,12 9,6 " fill="currentColor"></polygon></symbol>
  <symbol id="icon-close" viewBox="0 0 24 24" class="feather feather-x"><line x1="18" y1="6" x2="6" y2="18"></line><line x1="6" y1="6" x2="18" y2="18"></line></symbol>
  <!--<symbol id="icon-compare" viewBox="0 0 24 24" class="feather feather-custom">
    <path d="M17 9h3c1.1 0 2 .9 2 2v9c0 1.1-.9 2-2 2h-9c-1.1 0-2-.9-2-2v-3" style="stroke-linecap:square;"/>
    <path d="M13 16h-3v-5c0-.6.4-1 1-1h5v3c0 1.7-1.3 3-3 3z" style="fill:currentColor;stroke:none;stroke-linejoin:miter;"/>
    <path d="M4 2h9c1.1 0 2 .9 2 2v3h-4c-2.2 0-4 1.8-4 4v4H4c-1.1 0-2-.9-2-2V4c0-1.1.9-2 2-2z" style="fill:currentColor;stroke-linejoin:miter;"/>
  </symbol>-->
  <symbol id="icon-datepicker" viewBox="0 0 24 24" class="feather feather-calendar"><rect x="3" y="4" width="18" height="18" rx="2" ry="2"></rect><line x1="16" y1="2" x2="16" y2="6"></line><line x1="8" y1="2" x2="8" y2="6"></line><line x1="3" y1="10" x2="21" y2="10"></line></symbol>
  <symbol id="icon-download" viewBox="0 0 24 24" class="feather feather-download"><path d="M21 15v4a2 2 0 0 1-2 2H5a2 2 0 0 1-2-2v-4"></path><polyline points="7 10 12 15 17 10"></polyline><line x1="12" y1="15" x2="12" y2="3"></line></symbol>
  <symbol id="icon-filters" viewBox="0 0 24 24" class="feather feather-custom"><line x1="3" y1="4" x2="10" y2="4"></line><line x1="14" y1="4" x2="21" y2="4"></line><line x1="3" y1="12" x2="12" y2="12"></line><line x1="16" y1="12" x2="21" y2="12"></line><line x1="3" y1="20" x2="8" y2="20"></line><line x1="12" y1="20" x2="21" y2="20"></line><line x1="10" y1="2" x2="10" y2="6"></line><line x1="16" y1="10" x2="16" y2="14"></line><line x1="8" y1="18" x2="8" y2="22"></line></symbol>
  <symbol id="icon-grid" viewBox="0 0 24 24" class="feather feather-grid"><rect x="3" y="3" width="7" height="7" fill="currentColor"></rect><rect x="14" y="3" width="7" height="7" fill="currentColor"></rect><rect x="14" y="14" width="7" height="7" fill="currentColor"></rect><rect x="3" y="14" width="7" height="7" fill="currentColor"></rect></symbol>
  <symbol id="icon-info" viewBox="0 0 24 24" class="feather feather-info"><circle cx="12" cy="12" r="10"></circle><line x1="12" y1="16" x2="12" y2="12"></line><line x1="12" y1="8" x2="12.01" y2="8"></line></symbol>
  <symbol id="icon-list" viewBox="0 0 24 24" class="feather feather-list feather-custom"><line x1="3" y1="3" x2="21" y2="3"></line><line x1="3" y1="9" x2="21" y2="9"></line><line x1="3" y1="15" x2="21" y2="15"></line><line x1="3" y1="21" x2="21" y2="21"></line></symbol>
  <symbol id="icon-loader" viewBox="0 0 24 24" class="feather feather-loader"><line x1="12" y1="2" x2="12" y2="6"></line><line x1="12" y1="18" x2="12" y2="22"></line><line x1="4.93" y1="4.93" x2="7.76" y2="7.76"></line><line x1="16.24" y1="16.24" x2="19.07" y2="19.07"></line><line x1="2" y1="12" x2="6" y2="12"></line><line x1="18" y1="12" x2="22" y2="12"></line><line x1="4.93" y1="19.07" x2="7.76" y2="16.24"></line><line x1="16.24" y1="7.76" x2="19.07" y2="4.93"></line></symbol>
  <symbol id="icon-menu" viewBox="0 0 24 24" class="feather feather-menu"><line x1="3" y1="12" x2="21" y2="12"></line><line x1="3" y1="6" x2="21" y2="6"></line><line x1="3" y1="18" x2="21" y2="18"></line></symbol>
  <symbol id="icon-notice" viewBox="0 0 24 24" class="feather feather-alert-circle"><circle cx="12" cy="12" r="10"></circle><line x1="12" y1="8" x2="12" y2="12"></line><line x1="12" y1="16" x2="12.01" y2="16"></line></symbol>
  <symbol id="icon-pin" viewBox="0 0 24 24" class="feather feather-map-pin"><path d="M21 10c0 7-9 13-9 13s-9-6-9-13a9 9 0 0 1 18 0z"></path><circle cx="12" cy="10" r="3"></circle></symbol>
  <symbol id="icon-search" viewBox="0 0 24 24" class="feather feather-search"><circle cx="11" cy="11" r="8"></circle><line x1="21" y1="21" x2="16.65" y2="16.65"></line></symbol>
  <symbol id="icon-share" viewBox="0 0 24 24" class="feather feather-share-2"><circle cx="18" cy="5" r="3"></circle><circle cx="6" cy="12" r="3"></circle><circle cx="18" cy="19" r="3"></circle><line x1="8.59" y1="13.51" x2="15.42" y2="17.49"></line><line x1="15.41" y1="6.51" x2="8.59" y2="10.49"></line></symbol>
  <symbol viewBox="0 0 48 48" id="icon-ticket">
    <path fill="none" d="M0 0h48v48H0"></path>
    <path d="M27.63 11.34l9 9-16.29 16.29-9-9zm-6 27.89l17.6-17.61a1.79 1.79 0 000-2.56L28.91 8.74a1.86 1.86 0 00-2.56 0L8.75 26.35a1.76 1.76 0 000 2.56l10.31 10.32a1.86 1.86 0 002.56 0M47 21.08L21.11 46.94a3.67 3.67 0 01-5.16 0l-3.59-3.59a5.48 5.48 0 000-7.74A5.24 5.24 0 008.49 34a5.28 5.28 0 00-3.88 1.6L1.06 32a3.67 3.67 0 010-5.16L26.89 1.05a3.69 3.69 0 015.16 0l3.56 3.57A5.28 5.28 0 0034 8.49a5.28 5.28 0 001.6 3.87 5.49 5.49 0 007.75 0L47 15.92a3.69 3.69 0 010 5.16"></path>
  </symbol>
  <symbol id="icon-virtual" viewBox="0 0 24 24" class="feather feather-monitor"><rect x="2" y="3" width="20" height="14" rx="2" ry="2"></rect><line x1="8" y1="21" x2="16" y2="21"></line><line x1="12" y1="17" x2="12" y2="21"></line></symbol>
  <symbol id="icon-zoom" viewBox="0 0 24 24" class="feather feather-zoom-in"><circle cx="11" cy="11" r="8"></circle><line x1="21" y1="21" x2="16.65" y2="16.65"></line><line x1="11" y1="8" x2="11" y2="14"></line><line x1="8" y1="11" x2="14" y2="11"></line></symbol>
  <symbol id="icon-play" viewBox="0 0 24 24" class="feather feather-play"><polygon points="5 3 19 12 5 21 5 3"></polygon></symbol>
  <symbol id="icon-pause" viewBox="0 0 24 24" class="feather feather-pause"><rect x="6" y="4" width="4" height="16"></rect><rect x="14" y="4" width="4" height="16"></rect></symbol>
  <symbol id="icon-skipback" viewBox="0 0 24 24" class="feather feather-rotate-ccw"><polyline points="1 4 1 10 7 10"></polyline><path d="M3.51 15a9 9 0 1 0 2.13-9.36L1 10"></path></symbol>
  <symbol id="icon-skipforward" viewBox="0 0 24 24" class="feather feather-rotate-cw"><polyline points="23 4 23 10 17 10"></polyline><path d="M20.49 15a9 9 0 1 1-2.12-9.36L23 10"></path></symbol>
  <symbol id="icon-transcript" viewBox="0 0 24 24" class="feather feather-file-text"><path d="M14 2H6a2 2 0 0 0-2 2v16a2 2 0 0 0 2 2h12a2 2 0 0 0 2-2V8z"></path><polyline points="14 2 14 8 20 8"></polyline><line x1="16" y1="13" x2="8" y2="13"></line><line x1="16" y1="17" x2="8" y2="17"></line><polyline points="10 9 9 9 8 9"></polyline></symbol>
  <symbol viewBox="0 0 48 48" id="icon-oe">
    <path fill="none" d="M0 0h48v48H0z"></path>
    <path d="M33.12 36.67c-3.65 0-6.38-1.1-8.26-3.07a11.89 11.89 0 01-8.35 3.07c-6.91 0-12.77-5-12.77-12.67s5.91-12.67 12.92-12.67a11.49 11.49 0 018.25 3.17 10.07 10.07 0 017.87-3.17c8.17 0 11.48 5.42 11.48 14.54H30.1c.62 3.27 2.68 4.75 5.52 4.75s4.75-1 7.39-2.68l.14.09a42.27 42.27 0 00-.57 6.43 20.29 20.29 0 01-9.46 2.21zM16.51 17.38c-1.87 0-2.88 1.68-2.88 6.09s1.34 7.15 3.46 7.15C19 30.62 20 29 20 24.58s-1.38-7.2-3.49-7.2zm13.39 4.27H35c-.15-3.6-1.21-4.65-2.6-4.65s-2.3 1.33-2.5 4.65z"></path>
  </symbol>
  <symbol id="icon-facebook" viewBox="0 0 32 32">
      <path d="M32 16c0-8.9-7.1-16-16-16S0 7.2 0 16c0 8 5.9 14.6 13.5 15.8V20.6H9.4V16h4.1v-3.5c0-4.1 2.3-6.2 6.1-6.2 1.7 0 3.6 0.3 3.6 0.3v3.9h-2c-2 0-2.6 1.3-2.6 2.5v3H23l-0.7 4.6h-3.7v11.2C26.1 30.6 32 24 32 16z"></path>
  </symbol>
  <symbol id="icon-instagram" viewBox="0 0 32 32">
    <path d="M16 2.9c4.3 0 4.8 0 6.5 0.1 1.6 0.1 2.5 0.3 3 0.5 0.7 0.3 1.3 0.6 1.8 1.2s0.9 1.1 1.2 1.8c0.2 0.5 0.4 1.4 0.5 3 0.1 1.7 0.1 2.2 0.1 6.5s0 4.8-0.1 6.5c-0.1 1.6-0.3 2.5-0.5 3 -0.3 0.7-0.6 1.3-1.2 1.8s-1.1 0.9-1.8 1.2c-0.5 0.2-1.4 0.4-3 0.5 -1.7 0.1-2.2 0.1-6.5 0.1s-4.8 0-6.5-0.1c-1.6-0.1-2.5-0.3-3-0.5 -0.7-0.3-1.3-0.6-1.8-1.2s-0.9-1.1-1.2-1.8c-0.2-0.5-0.4-1.4-0.5-3 -0.1-1.7-0.1-2.2-0.1-6.5s0-4.8 0.1-6.5c0.1-1.6 0.3-2.5 0.5-3 0.3-0.6 0.6-1.2 1.2-1.8 0.5-0.5 1.1-0.9 1.8-1.2C7 3.3 7.9 3.1 9.5 3 11.2 2.9 11.7 2.9 16 2.9M16 0c-4.4 0-4.9 0-6.6 0.1S6.5 0.4 5.5 0.9c-1.1 0.4-1.9 1-2.9 1.8 -0.9 1-1.4 1.8-1.8 2.9S0.2 7.7 0.1 9.4C0 11.1 0 11.6 0 16s0 4.9 0.1 6.6 0.3 2.9 0.7 3.8c0.4 1.1 1 1.9 1.8 2.9 0.9 0.9 1.8 1.4 2.9 1.8 1.1 0.4 2.1 0.6 3.8 0.7C11.1 32 11.6 32 16 32s4.9 0 6.6-0.1c1.7-0.1 2.9-0.3 3.8-0.7 1.1-0.4 1.9-1 2.9-1.8 0.9-0.9 1.4-1.8 1.8-2.9 0.4-1.1 0.6-2.1 0.7-3.8C32 20.9 32 20.4 32 16s0-4.9-0.1-6.6c-0.1-1.7-0.3-2.9-0.7-3.8 -0.4-1.1-1-1.9-1.8-2.9 -0.9-0.9-1.8-1.4-2.9-1.8 -1.1-0.4-2.1-0.6-3.8-0.7C20.9 0 20.4 0 16 0L16 0z"></path>
    <path d="M16 7.8c-4.6 0-8.2 3.6-8.2 8.2s3.6 8.2 8.2 8.2 8.2-3.6 8.2-8.2S20.6 7.8 16 7.8zM16 21.3c-3 0-5.3-2.3-5.3-5.3s2.3-5.3 5.3-5.3 5.3 2.3 5.3 5.3S19 21.3 16 21.3z"></path>
    <circle cx="24.5" cy="7.5" r="1.9"></circle>
  </symbol>
  <symbol id="icon-pinterest" viewBox="0 0 32 32">
    <circle cx="16" cy="16.1" r="16" fill="none"></circle>
    <path d="M16 0.1c-8.9 0-16 7.1-16 16C0 22.9 4.2 28.7 10.1 31c-0.1-1.2-0.3-3.2 0.1-4.5 0.3-1.2 1.9-7.9 1.9-7.9s-0.5-0.9-0.5-2.4c0-2.3 1.2-3.9 2.9-3.9 1.3 0 2.1 1 2.1 2.3 0 1.3-0.8 3.4-1.3 5.4 -0.4 1.5 0.8 2.9 2.4 2.9 2.9 0 5.1-3 5.1-7.3 0-3.8-2.8-6.5-6.7-6.5 -4.5 0-7.2 3.4-7.2 6.9 0 1.3 0.5 2.9 1.1 3.6 0.1 0.2 0.1 0.3 0.1 0.4 -0.1 0.5-0.4 1.5-0.4 1.9C9.4 22 9.3 22 9 21.9c-2-0.9-3.2-3.8-3.2-6.2C5.8 10.6 9.4 6 16.3 6c5.6 0 9.8 3.9 9.8 9.2 0 5.5-3.5 9.9-8.3 9.9 -1.7 0-3.1-0.8-3.6-1.9 0 0-0.8 3.1-1 3.8 -0.3 1.4-1.3 3.1-2 4.2 1.5 0.4 3.1 0.7 4.7 0.7 8.9 0 16-7.1 16-16C32 7.2 24.9 0.1 16 0.1z"></path>
  </symbol>
  <symbol id="icon-twitter" viewBox="0 0 32 32">
    <path d="M32 16c0 8.9-7.1 16-16 16S0 24.9 0 16 7.1 0 16 0 32 7.1 32 16zM13.1 24.4c7.1 0 11-5.9 11-11 0-0.2 0-0.3 0-0.5 0.7-0.5 1.4-1.2 1.9-2 -0.6 0.3-1.4 0.5-2.2 0.6 0.9-0.4 1.4-1.3 1.7-2.1 -0.7 0.4-1.6 0.7-2.5 1 -0.7-0.7-1.7-1.2-2.9-1.2 -2.1 0-3.8 1.7-3.8 3.8 0 0.3 0 0.6 0.1 0.9 -3.2-0.2-6.1-1.7-8-4.1 -0.3 0.5-0.5 1.3-0.5 1.9 0 1.4 0.6 2.6 1.7 3.2 -0.6 0-1.2-0.2-1.7-0.4l0 0c0 1.9 1.3 3.4 3.1 3.7 -0.3 0.1-0.6 0.1-1.1 0.1 -0.2 0-0.5 0-0.7-0.1 0.5 1.5 1.9 2.7 3.6 2.7 -1.3 1.1-3 1.6-4.8 1.6 -0.3 0-0.6 0-1-0.1C8.9 23.8 10.9 24.4 13.1 24.4"></path>
  </symbol>
  <symbol id="icon-youtube" viewBox="0 0 32 32"><path d="M16 0C7.1 0 0 7.1 0 16s7.1 16 16 16 16-7.1 16-16S24.9 0 16 0zM26.6 21.5c-0.4 1.1-1.1 1.9-2.1 2.1C22.9 24 16.3 24 16 24s-6.8 0-8.5-0.4c-1-0.2-1.8-1.1-2.1-2.1C5 19.7 5 16.2 5 16c0-0.1 0-3.7 0.4-5.5 0.4-1.2 1.1-1.9 2.1-2.1C9.1 8 15.7 8 16 8c0.3 0 6.9 0 8.5 0.4 1 0.2 1.8 1.1 2.1 2.1C27 12.3 27 15.9 27 16 27 16.2 27 19.7 26.6 21.5z"></path><polygon points="13.9 19.3 19.6 16 13.9 12.7 "></polygon></symbol>
</svg>