<svg xmlns="http://www.w3.org/2000/svg" viewBox="0 0 187.63 104"><style>.a{fill:#FFF;}</style><title>National Gallery of Art</title><path d="M16.716 23.862c1.345 1.061 1.416 1.734 1.416 10.898l-9.093-9.942c-0.425-0.46-0.885-0.991-1.239-1.451H2.103c0.106 4.352 0.142 6.05 0.142 11.959v0.248c0 9.943-0.035 10.615-1.415 11.712v0.495h9.27v-0.495c-1.345-1.062-1.416-1.734-1.416-11.393l7.147 7.749c1.451 1.592 2.583 2.937 3.539 4.14h4.953l0.212-13.799c0.142-8.28 0.035-8.987 1.451-10.119v-0.495h-9.27V23.862z" class="a"/><path d="M32.851 48.099c2.441 0 3.857-1.132 4.847-3.114l0.389 2.795h7.608v-0.495c-1.097-0.955-1.203-1.769-1.203-7.607v-9.235l-0.142-0.071 -3.043 1.84c-1.981-1.203-3.821-1.734-5.944-1.734 -4.494 0-8.952 3.291-8.952 9.66C26.411 44.631 29.135 48.099 32.851 48.099zM36.283 34.972c0.495 0 0.778 0.071 1.167 0.248v8.032c-0.248 0.071-0.495 0.142-0.743 0.142 -1.769 0-2.972-1.274-2.972-3.998C33.735 36.528 34.938 34.972 36.283 34.972z" class="a"/><path d="M47.569 42.508c0 4.104 2.229 5.661 5.873 5.661 2.123 0 3.574-0.495 4.989-1.097l0.283-4.635 -0.142-0.071c-0.778 0.566-1.592 0.884-2.158 0.884 -1.026 0-1.593-0.531-1.593-1.981v-5.944h3.998v-4.458h-3.998v-5.272h-0.283c-2.972 2.618-5.979 4.812-8.456 6.263v3.467h1.486V42.508z" class="a"/><path d="M69.541 47.285c-1.097-0.955-1.203-1.769-1.203-7.607v-8.81h-8.456v0.496c1.097 0.955 1.203 1.769 1.203 7.713v0.495c0 5.944-0.106 6.758-1.203 7.713v0.495h9.659V47.285z" class="a"/><path d="M64.446 29.841c2.441 0 4.281-1.698 4.281-3.857 0-2.052-1.451-3.786-4.034-3.786 -2.441 0-4.281 1.698-4.281 3.857C60.412 28.107 61.863 29.841 64.446 29.841z" class="a"/><path d="M79.484 48.346c5.095 0 9.306-3.538 9.306-8.987 0-5.52-4.21-9.058-9.235-9.058 -5.095 0-9.306 3.538-9.306 8.987C70.249 44.808 74.459 48.346 79.484 48.346zM79.413 34.795c1.38 0 2.052 1.698 2.052 4.706 0 3.185-0.743 4.352-1.84 4.352 -1.38 0-2.053-1.698-2.053-4.706C77.573 35.962 78.316 34.795 79.413 34.795z" class="a"/><path d="M107.931 39.571v-3.574c0-3.361-1.203-5.484-4.777-5.484 -2.299 0-4.069 1.38-5.024 3.291l-0.142-0.035v-2.901h-8.456v0.496c1.097 0.955 1.203 1.769 1.203 7.112v1.097c0 5.944-0.106 6.758-1.203 7.713v0.495h9.27v-0.495c-0.708-0.708-0.814-1.769-0.814-7.289v-2.795c0-1.309 0.602-1.804 1.416-1.804 0.708 0 1.274 0.531 1.274 1.804v2.795c0 5.52-0.106 6.581-0.814 7.289v0.495h9.27v-0.495C108.037 46.329 107.931 45.516 107.931 39.571z" class="a"/><path d="M127.886 39.677v-9.235l-0.142-0.071 -3.043 1.84c-1.981-1.203-3.821-1.734-5.944-1.734 -4.494 0-8.952 3.291-8.952 9.66 0 4.494 2.725 7.961 6.44 7.961 2.441 0 3.857-1.132 4.847-3.114l0.389 2.795h7.607v-0.495C127.992 46.329 127.886 45.516 127.886 39.677zM120.845 43.251c-0.248 0.071-0.495 0.142-0.743 0.142 -1.769 0-2.972-1.274-2.972-3.998 0-2.866 1.203-4.423 2.547-4.423 0.495 0 0.779 0.071 1.168 0.248V43.251z" class="a"/><path d="M139.314 47.285c-1.097-0.955-1.203-1.769-1.203-7.536V23.366h-8.456v0.495c1.097 0.955 1.203 1.84 1.203 7.536v8.35c0 5.767-0.106 6.581-1.203 7.536v0.495h9.659V47.285z" class="a"/><path d="M16.772 68.434c2.795 0.424 3.184 0.885 3.184 2.654v2.795c0 1.557-0.071 2.335-0.672 2.972 -1.061 1.062-3.361 2.017-5.838 2.017 -5.732 0-9.659-4.741-9.659-11.818 0-6.546 4.034-11.499 9.376-11.499 4.423 0 7.501 2.264 8.881 6.192h0.53v-0.885c0-1.486 0.035-2.76 0.177-3.75 -2.583-1.345-5.307-2.618-9.199-2.618C6.51 54.493 0 60.084 0 67.726c0 7.43 6.05 12.207 12.844 12.207 3.467 0 6.581-1.167 10.367-3.467 -0.177-0.425-0.177-1.486-0.177-2.335v-2.901c0-1.981 0.389-2.477 1.309-2.795v-0.495h-7.572V68.434z" class="a"/><path d="M42.211 76.147V63.02l-0.142-0.071 -2.3 1.309c-1.627-0.955-2.972-1.344-4.6-1.344 -4.14 0-8.527 3.432-8.527 9.164 0 4.777 3.361 7.784 7.006 7.784 2.264 0 4.14-1.061 5.767-3.255l0.177 2.76h4.494v-0.495C42.529 78.447 42.211 78.129 42.211 76.147zM39.309 75.369c-1.486 2.088-2.972 3.078-4.671 3.078 -2.618 0-4.741-2.548-4.741-6.9 0-4.6 2.407-7.572 5.414-7.572 1.522 0 2.654 0.389 3.998 1.309V75.369z" class="a"/><path d="M50.101 76.147V54.953h-4.954v0.495c1.734 0.425 2.052 0.743 2.052 2.725v17.974c0 1.981-0.318 2.3-2.052 2.724v0.495h7.112v-0.495C50.49 78.447 50.101 78.129 50.101 76.147z" class="a"/><path d="M58.38 76.147V54.953h-4.954v0.495c1.734 0.425 2.052 0.743 2.052 2.725v17.974c0 1.981-0.389 2.3-2.158 2.724v0.495h7.112v-0.495C58.699 78.447 58.38 78.129 58.38 76.147z" class="a"/><path d="M77.451 70.557c-0.212-5.024-3.007-7.82-7.147-7.82 -4.281 0-8.209 3.361-8.209 8.916 0 5.272 3.468 8.244 8.174 8.244 2.335 0 4.494-0.849 6.227-2.052 0-0.743 0-1.592 0.142-2.512l-0.248-0.071c-1.556 2.512-3.538 3.68-5.555 3.68 -3.362 0-5.555-3.503-5.555-8.067 0-0.106 0-0.212 0-0.318H77.451zM70.092 63.622c2.866 0 3.927 2.724 3.998 5.98h-8.739C65.669 65.957 67.402 63.622 70.092 63.622z" class="a"/><path d="M84.103 66.417v-3.114h-4.954v0.495c1.769 0.531 2.052 0.849 2.052 2.831v9.518c0 1.981-0.319 2.3-2.052 2.724v0.495h7.112v-0.495c-1.734-0.424-2.158-0.743-2.158-2.724V67.16c1.911-1.097 2.795-1.132 5.095-1.026v-2.831c-0.248-0.035-0.602-0.071-0.849-0.071C87.252 63.233 86.332 64.117 84.103 66.417z" class="a"/><path d="M102.077 63.799c1.309 0.248 1.699 0.637 1.663 1.203 0 0.354-0.106 0.743-0.389 1.451l-3.892 9.73 -3.998-9.836c-0.212-0.566-0.354-1.097-0.354-1.344 0-0.566 0.389-0.955 1.698-1.203v-0.495h-6.369v0.495c0.814 0.248 1.132 0.531 1.946 2.441l5.591 13.268 -1.097 2.512c-1.097 2.477-1.946 3.291-4.104 4.14v0.46h3.75c0.212-0.956 0.566-1.805 1.593-4.246l6.758-16.064c0.778-1.805 1.238-2.159 2.477-2.512v-0.495h-5.272V63.799z" class="a"/><path d="M119.343 62.737c-4.211 0-8.598 3.538-8.598 8.669 0 5.095 4.423 8.527 8.598 8.527 4.21 0 8.598-3.538 8.598-8.669C127.941 66.17 123.519 62.737 119.343 62.737zM119.343 78.978c-3.256 0-5.343-3.361-5.343-7.997 0-4.423 2.299-7.289 5.343-7.289 3.255 0 5.342 3.361 5.342 7.997C124.686 76.112 122.386 78.978 119.343 78.978z" class="a"/><path d="M131.515 63.303h-2.053v0.991h2.053v11.853c0 1.981-0.318 2.3-2.053 2.724v0.495h7.112v-0.495c-1.734-0.424-2.158-0.743-2.158-2.724V64.294h3.998v-0.991h-3.998v-3.609c0-2.937 1.203-3.397 2.477-3.397 0.778 0 1.911 0.389 3.291 0.955l0.142-0.035 0.283-2.265c-0.814-0.212-1.77-0.354-2.619-0.354C134.805 54.599 131.692 57.996 131.515 63.303z" class="a"/><path d="M164.455 76.324l-7.289-17.267c-0.707-1.698-1.274-3.043-1.804-4.352H154.3c-0.531 1.309-1.097 2.654-1.876 4.352l-7.253 15.922c-1.38 3.043-1.769 3.574-2.937 3.892v0.495h5.767v-0.495c-1.557-0.283-2.087-0.601-2.087-1.238 0-0.602 0.354-1.451 0.884-2.618l1.698-3.857h10.615l1.911 4.706c0.283 0.708 0.53 1.345 0.53 1.769 0 0.637-0.53 0.955-2.087 1.238v0.495h7.253v-0.495C165.552 78.554 165.163 77.952 164.455 76.324zM148.993 70.097l4.989-11.181 4.671 11.181H148.993z" class="a"/><path d="M171.956 66.417v-3.114h-4.953v0.495c1.769 0.531 2.052 0.849 2.052 2.831v9.518c0 1.981-0.212 2.441-1.274 2.724v0.495h6.333v-0.495c-1.734-0.424-2.158-0.743-2.158-2.724V67.16c1.911-1.097 2.795-1.132 5.095-1.026v-2.831c-0.248-0.035-0.602-0.071-0.849-0.071C175.105 63.233 174.185 64.117 171.956 66.417z" class="a"/><path d="M187.347 76.926c-0.991 1.345-1.734 1.875-2.583 1.875 -1.061 0-1.84-0.885-1.84-2.937v-11.57h4.529v-0.991h-4.529v-3.786h-0.283c-1.593 2.088-2.866 3.291-4.281 4.281v0.495h1.663v11.358c0 3.326 2.158 4.105 4.281 4.105 0.92 0 2.406-0.389 3.149-0.885 0-0.531 0.071-1.203 0.177-1.84L187.347 76.926z" class="a"/></svg>
