<svg xmlns="http://www.w3.org/2000/svg" viewBox="0 0 250 250">
  <text font-size="1em" fill="gray" font-family="'MalloryCompact',Arial,sans-serif" x="125" y="246" text-anchor="middle">
    Image not available
  </text>
  <circle cx="125" cy="117.2" r="29.33" fill="#d5d5d5"/>
  <path d="M193.2 65.87h-31.53l-19.94-17.28a7.34 7.34 0 00-4.8-1.79h-23.86a7.34 7.34 0 00-4.8 1.79L88.33 65.87H56.8a8.83 8.83 0 00-8.8 8.8v85.06a8.83 8.83 0 008.8 8.8h136.4a8.83 8.83 0 008.8-8.8V74.67a8.83 8.83 0 00-8.8-8.8zm-68.2 88a36.67 36.67 0 1136.67-36.67A36.71 36.71 0 01125 153.87z" fill="#d5d5d5"/>
  <path d="M202.82 37.18a110 110 0 100 155.64 110.18 110.18 0 000-155.64zM195 45a99.18 99.18 0 013.82 136L59 41.19A99.16 99.16 0 01195 45zM55 185a99.17 99.17 0 01-3.81-136L191 188.81A99.17 99.17 0 0155 185z" fill="#d5d5d5"/>
</svg>
